<svg xmlns="http://www.w3.org/2000/svg" xmlns:xlink="http://www.w3.org/1999/xlink" width="300" zoomAndPan="magnify" viewBox="0 0 224.87999 38.249999" height="51" preserveAspectRatio="xMidYMid meet" version="1.0"><defs><g/><clipPath id="375998ed65"><path d="M 2.101562 0.542969 L 73.976562 0.542969 L 73.976562 36.476562 L 2.101562 36.476562 Z M 2.101562 0.542969 " clip-rule="nonzero"/></clipPath></defs><g clip-path="url(#375998ed65)"><path fill="#ffffff" d="M 2.109375 0.542969 L 73.96875 0.542969 L 73.96875 36.476562 L 2.109375 36.476562 L 2.109375 0.542969 " fill-opacity="1" fill-rule="nonzero"/></g><g fill="#ffbd59" fill-opacity="1"><g transform="translate(12.347439, 29.775041)"><g><path d="M 15.535156 -11.40625 C 17.644531 -12.140625 18.746094 -13.609375 18.746094 -15.65625 C 18.746094 -18.472656 16.789062 -20.550781 13.363281 -20.980469 C 12.292969 -21.101562 11.742188 -21.101562 10.640625 -21.101562 L 2.597656 -21.101562 L 2.597656 0 L 10.613281 0 C 11.867188 0 12.570312 0 13.609375 -0.121094 C 16.453125 -0.488281 19.511719 -2.414062 19.511719 -6.332031 C 19.511719 -8.992188 18.226562 -10.703125 15.535156 -11.40625 Z M 7.402344 -17.371094 L 10.183594 -17.371094 C 10.671875 -17.371094 11.222656 -17.339844 11.652344 -17.277344 C 12.90625 -17.09375 13.730469 -16.421875 13.730469 -15.015625 C 13.730469 -13.609375 12.996094 -12.90625 11.683594 -12.691406 C 11.253906 -12.628906 10.765625 -12.601562 10.277344 -12.601562 L 7.402344 -12.601562 Z M 12.140625 -3.792969 C 11.742188 -3.761719 11.253906 -3.761719 10.765625 -3.761719 L 7.402344 -3.761719 L 7.402344 -9.082031 L 10.582031 -9.082031 C 11.070312 -9.082031 11.558594 -9.082031 12.050781 -9.023438 C 13.394531 -8.898438 14.496094 -8.105469 14.496094 -6.390625 C 14.496094 -4.800781 13.394531 -3.882812 12.140625 -3.792969 Z M 12.140625 -3.792969 "/></g></g></g><g fill="#ffbd59" fill-opacity="1"><g transform="translate(31.246827, 29.775041)"><g><path d="M 17.125 -8.441406 C 17.125 -12.78125 14.433594 -16.726562 9.234375 -16.726562 C 4.066406 -16.726562 0.796875 -12.996094 0.796875 -8.105469 C 0.796875 -2.355469 4.375 0.429688 8.929688 0.429688 C 12.90625 0.429688 15.964844 -1.558594 16.851562 -5.320312 L 12.109375 -5.320312 C 11.835938 -3.792969 10.703125 -2.875 9.023438 -2.875 C 7.21875 -2.875 5.871094 -3.792969 5.597656 -6.910156 L 17.035156 -6.910156 C 17.09375 -7.492188 17.125 -8.011719 17.125 -8.441406 Z M 9.023438 -13.425781 C 10.796875 -13.425781 11.867188 -12.234375 12.140625 -9.9375 L 5.71875 -9.9375 C 6.117188 -12.355469 7.308594 -13.425781 9.023438 -13.425781 Z M 9.023438 -13.425781 "/></g></g></g><g fill="#ffbd59" fill-opacity="1"><g transform="translate(47.699693, 29.775041)"><g><path d="M 8.042969 -16.726562 C 3.945312 -16.726562 1.253906 -14.769531 1.253906 -11.589844 C 1.253906 -8.808594 3.242188 -7.429688 6.300781 -6.667969 C 9.175781 -5.992188 10.214844 -5.351562 10.214844 -4.191406 C 10.214844 -3.148438 9.296875 -2.660156 8.132812 -2.660156 C 6.789062 -2.660156 5.6875 -3.484375 5.351562 -5.015625 L 0.613281 -5.015625 C 1.039062 -1.34375 3.945312 0.429688 8.105469 0.429688 C 11.925781 0.429688 15.015625 -1.160156 15.015625 -4.558594 C 15.015625 -7.613281 12.996094 -8.929688 9.847656 -9.726562 C 6.941406 -10.457031 6.054688 -11.070312 6.054688 -12.171875 C 6.054688 -13.027344 6.699219 -13.671875 7.738281 -13.671875 C 8.929688 -13.671875 9.632812 -12.90625 9.910156 -11.558594 L 14.648438 -11.558594 C 14.25 -14.527344 11.988281 -16.726562 8.042969 -16.726562 Z M 8.042969 -16.726562 "/></g></g></g><g fill="#ffbd59" fill-opacity="1"><g transform="translate(61.79778, 29.775041)"><g><path d="M 7.554688 -13.121094 L 11.007812 -13.121094 L 11.007812 -16.175781 L 7.554688 -16.175781 L 7.554688 -20.277344 L 2.753906 -20.277344 L 2.753906 -16.175781 L 0.273438 -16.175781 L 0.273438 -13.121094 L 2.753906 -13.121094 L 2.753906 -5.628906 C 2.753906 -4.710938 2.753906 -3.976562 2.8125 -3.148438 C 2.996094 -0.765625 4.160156 0.398438 7.738281 0.398438 C 8.777344 0.398438 9.726562 0.304688 10.703125 0.152344 L 10.703125 -2.90625 C 8.257812 -2.753906 7.707031 -3.121094 7.585938 -4.738281 C 7.554688 -5.167969 7.554688 -5.71875 7.554688 -6.269531 Z M 7.554688 -13.121094 "/></g></g></g><g fill="#ffbd59" fill-opacity="1"><g transform="translate(71.828524, 29.775041)"><g><path d="M 15.535156 -11.40625 C 17.644531 -12.140625 18.746094 -13.609375 18.746094 -15.65625 C 18.746094 -18.472656 16.789062 -20.550781 13.363281 -20.980469 C 12.292969 -21.101562 11.742188 -21.101562 10.640625 -21.101562 L 2.597656 -21.101562 L 2.597656 0 L 10.613281 0 C 11.867188 0 12.570312 0 13.609375 -0.121094 C 16.453125 -0.488281 19.511719 -2.414062 19.511719 -6.332031 C 19.511719 -8.992188 18.226562 -10.703125 15.535156 -11.40625 Z M 7.402344 -17.371094 L 10.183594 -17.371094 C 10.671875 -17.371094 11.222656 -17.339844 11.652344 -17.277344 C 12.90625 -17.09375 13.730469 -16.421875 13.730469 -15.015625 C 13.730469 -13.609375 12.996094 -12.90625 11.683594 -12.691406 C 11.253906 -12.628906 10.765625 -12.601562 10.277344 -12.601562 L 7.402344 -12.601562 Z M 12.140625 -3.792969 C 11.742188 -3.761719 11.253906 -3.761719 10.765625 -3.761719 L 7.402344 -3.761719 L 7.402344 -9.082031 L 10.582031 -9.082031 C 11.070312 -9.082031 11.558594 -9.082031 12.050781 -9.023438 C 13.394531 -8.898438 14.496094 -8.105469 14.496094 -6.390625 C 14.496094 -4.800781 13.394531 -3.882812 12.140625 -3.792969 Z M 12.140625 -3.792969 "/></g></g></g><g fill="#ffbd59" fill-opacity="1"><g transform="translate(90.727915, 29.775041)"><g><path d="M 10.796875 -16.726562 C 9.847656 -16.726562 8.65625 -16.300781 7.828125 -15.445312 L 6.605469 -13.179688 L 6.605469 -16.300781 L 1.804688 -16.300781 L 1.804688 0 L 6.605469 0 L 6.605469 -6.820312 C 6.605469 -11.4375 8.226562 -12.964844 12.019531 -12.722656 L 12.019531 -16.605469 C 11.652344 -16.667969 11.316406 -16.726562 10.796875 -16.726562 Z M 10.796875 -16.726562 "/></g></g></g><g fill="#ffbd59" fill-opacity="1"><g transform="translate(101.370291, 29.775041)"><g><path d="M 11.316406 0 L 15.996094 0 C 15.75 -1.804688 15.6875 -2.90625 15.6875 -4.128906 L 15.6875 -9.082031 C 15.6875 -10.03125 15.65625 -10.949219 15.597656 -11.710938 C 15.351562 -14.617188 13.609375 -16.726562 8.777344 -16.726562 C 4.800781 -16.726562 1.652344 -14.617188 1.558594 -10.886719 L 6.148438 -10.886719 C 6.269531 -12.507812 7.09375 -13.425781 8.59375 -13.425781 C 10.03125 -13.425781 10.765625 -12.628906 10.855469 -11.652344 C 10.917969 -11.101562 10.917969 -10.671875 10.917969 -10.246094 L 10.917969 -9.96875 L 9.878906 -9.96875 C 4.128906 -9.96875 0.980469 -7.890625 0.980469 -4.34375 C 0.980469 -1.253906 3.457031 0.429688 6.207031 0.429688 C 7.707031 0.429688 9.082031 0.0898438 10.246094 -0.640625 L 10.980469 -2.386719 Z M 8.105469 -2.875 C 6.789062 -2.875 5.902344 -3.515625 5.902344 -4.738281 C 5.902344 -6.636719 7.953125 -7.371094 10.917969 -7.125 L 10.917969 -5.933594 C 10.917969 -3.914062 9.542969 -2.875 8.105469 -2.875 Z M 8.105469 -2.875 "/></g></g></g><g fill="#ffbd59" fill-opacity="1"><g transform="translate(117.364429, 29.775041)"><g><path d="M 17.523438 -12.234375 C 17.15625 -15.078125 15.167969 -16.726562 11.742188 -16.726562 C 10.214844 -16.726562 9.050781 -16.421875 7.953125 -15.6875 L 6.605469 -13.730469 L 6.605469 -16.300781 L 1.804688 -16.300781 L 1.804688 0 L 6.605469 0 L 6.605469 -7.554688 C 6.605469 -11.710938 8.011719 -13.425781 9.910156 -13.425781 C 11.773438 -13.425781 12.691406 -12.386719 12.8125 -10.734375 C 12.875 -9.910156 12.875 -9.082031 12.875 -8.472656 L 12.875 0 L 17.675781 0 L 17.675781 -9.203125 C 17.675781 -10.519531 17.644531 -11.40625 17.523438 -12.234375 Z M 17.523438 -12.234375 "/></g></g></g><g fill="#ffbd59" fill-opacity="1"><g transform="translate(135.132295, 29.775041)"><g><path d="M 18.226562 -22.476562 L 13.425781 -22.476562 L 13.425781 -14.160156 L 12.355469 -15.871094 C 11.527344 -16.390625 9.910156 -16.726562 8.5625 -16.726562 C 4.375 -16.726562 0.796875 -13.671875 0.796875 -7.828125 C 0.796875 -2.996094 3.515625 0.429688 8.011719 0.429688 C 9.664062 0.429688 11.285156 0.0625 12.203125 -0.640625 L 13.425781 -2.445312 L 13.425781 0 L 18.226562 0 Z M 9.542969 -2.875 C 7.277344 -2.875 5.71875 -4.894531 5.71875 -8.105469 C 5.71875 -11.652344 7.371094 -13.425781 9.695312 -13.425781 C 11.5 -13.425781 13.425781 -12.203125 13.425781 -8.714844 L 13.425781 -7.953125 C 13.425781 -4.21875 11.710938 -2.875 9.542969 -2.875 Z M 9.542969 -2.875 "/></g></g></g><g fill="#ffbd59" fill-opacity="1"><g transform="translate(153.664706, 29.775041)"><g><path d="M 3.976562 -5.136719 C 2.355469 -5.136719 1.191406 -4.007812 1.191406 -2.355469 C 1.191406 -0.734375 2.355469 0.429688 3.976562 0.429688 C 5.628906 0.429688 6.757812 -0.734375 6.757812 -2.355469 C 6.757812 -4.007812 5.628906 -5.136719 3.976562 -5.136719 Z M 3.976562 -5.136719 "/></g></g></g><g fill="#ffbd59" fill-opacity="1"><g transform="translate(159.933919, 29.775041)"><g><path d="M 9.144531 -16.726562 C 4.527344 -16.726562 0.796875 -13.609375 0.796875 -8.011719 C 0.796875 -2.476562 4.21875 0.429688 8.746094 0.429688 C 12.996094 0.429688 16.117188 -1.683594 16.757812 -5.78125 L 12.019531 -5.78125 C 11.652344 -3.882812 10.488281 -2.875 9.023438 -2.875 C 7.035156 -2.875 5.71875 -4.527344 5.71875 -8.316406 C 5.71875 -11.773438 7.003906 -13.425781 9.023438 -13.425781 C 10.613281 -13.425781 11.742188 -12.507812 12.078125 -10.277344 L 16.757812 -10.277344 C 16.515625 -13.914062 13.699219 -16.726562 9.144531 -16.726562 Z M 9.144531 -16.726562 "/></g></g></g><g fill="#ffbd59" fill-opacity="1"><g transform="translate(175.928063, 29.775041)"><g><path d="M 9.386719 -16.726562 C 3.976562 -16.726562 0.796875 -13.242188 0.796875 -8.164062 C 0.796875 -3.089844 3.976562 0.429688 9.386719 0.429688 C 14.769531 0.429688 17.980469 -3.089844 17.980469 -8.164062 C 17.980469 -13.242188 14.769531 -16.726562 9.386719 -16.726562 Z M 9.386719 -2.875 C 7.09375 -2.875 5.71875 -4.769531 5.71875 -8.164062 C 5.71875 -11.558594 7.09375 -13.425781 9.386719 -13.425781 C 11.652344 -13.425781 13.027344 -11.558594 13.027344 -8.164062 C 13.027344 -4.769531 11.652344 -2.875 9.386719 -2.875 Z M 9.386719 -2.875 "/></g></g></g><g fill="#ffbd59" fill-opacity="1"><g transform="translate(193.145471, 29.775041)"><g><path d="M 26.910156 -12.660156 C 26.542969 -14.894531 24.742188 -16.726562 21.558594 -16.726562 C 20.09375 -16.726562 19.023438 -16.421875 18.074219 -15.78125 L 16.421875 -13.578125 C 15.75 -15.382812 14.066406 -16.726562 11.347656 -16.726562 C 9.847656 -16.726562 8.808594 -16.421875 7.828125 -15.78125 L 6.605469 -13.761719 L 6.605469 -16.300781 L 1.804688 -16.300781 L 1.804688 0 L 6.605469 0 L 6.605469 -8.472656 C 6.605469 -11.804688 7.492188 -13.425781 9.328125 -13.425781 C 10.886719 -13.425781 11.710938 -12.507812 11.925781 -10.886719 C 12.019531 -10.0625 12.050781 -9.175781 12.050781 -8.410156 L 12.050781 0 L 16.820312 0 L 16.820312 -8.472656 C 16.820312 -11.804688 17.738281 -13.425781 19.570312 -13.425781 C 21.101562 -13.425781 21.957031 -12.507812 22.140625 -10.886719 C 22.234375 -10.0625 22.261719 -9.175781 22.261719 -8.410156 L 22.261719 0 L 27.066406 0 L 27.066406 -9.632812 C 27.066406 -10.949219 27.035156 -11.835938 26.910156 -12.660156 Z M 26.910156 -12.660156 "/></g></g></g></svg>